{
	"accessors": [
		{
			"bufferView": 0,
			"byteOffset": 0,
			"componentType": 5126,
			"count": 120,
			"max": [
				0.1875,
				0.75,
				0.1875
			],
			"min": [
				-0.1875,
				-0.25,
				-0.1875
			],
			"type": "VEC3"
		},
		{
			"bufferView": 1,
			"byteOffset": 0,
			"componentType": 5126,
			"count": 120,
			"max": [
				1.0,
				1.0,
				1.0
			],
			"min": [
				-1.0,
				-1.0,
				-1.0
			],
			"type": "VEC3"
		},
		{
			"bufferView": 2,
			"byteOffset": 0,
			"componentType": 5126,
			"count": 120,
			"max": [
				0.296875,
				0.515625
			],
			"min": [
				0.0013843750348314643,
				0.0
			],
			"type": "VEC2"
		},
		{
			"bufferView": 3,
			"byteOffset": 0,
			"componentType": 5123,
			"count": 144,
			"max": [
				119.0
			],
			"min": [
				0.0
			],
			"type": "SCALAR"
		}
	],
	"asset": {
		"extras": {
			"created": "Tue Nov 19 21:51:16 2024"
		},
		"generator": "Gestaltor 2023.1.0 Titan Community (dev-59216b3*)",
		"version": "2.0"
	},
	"bufferViews": [
		{
			"buffer": 0,
			"byteLength": 1440,
			"byteOffset": 0,
			"byteStride": 12,
			"target": 34962
		},
		{
			"buffer": 0,
			"byteLength": 1440,
			"byteOffset": 1440,
			"byteStride": 12,
			"target": 34962
		},
		{
			"buffer": 0,
			"byteLength": 960,
			"byteOffset": 2880,
			"byteStride": 8,
			"target": 34962
		},
		{
			"buffer": 0,
			"byteLength": 288,
			"byteOffset": 3840,
			"target": 34963
		}
	],
	"buffers": [
		{
			"byteLength": 4128,
			"uri": "data:application/octet-stream;base64,"
		}
	],
	"images": [
		{
			"mimeType": "image/png",
			"uri": "data:image/png;base64,"
		}
	],
	"materials": [
		{
			"alphaCutoff": 0.05,
			"alphaMode": "MASK",
			"doubleSided": true,
			"pbrMetallicRoughness": {
				"baseColorTexture": {
					"index": 0
				},
				"metallicFactor": 0.0,
				"roughnessFactor": 1.0
			}
		}
	],
	"meshes": [
		{
			"primitives": [
				{
					"attributes": {
						"NORMAL": 1,
						"POSITION": 0,
						"TEXCOORD_0": 2
					},
					"indices": 3,
					"material": 0,
					"mode": 4
				}
			]
		}
	],
	"nodes": [
		{
			"mesh": 0,
			"name": "cylinder",
			"rotation": [
				0.0,
				0.0,
				-0.7071067811865475,
				0.7071067811865476
			],
			"translation": [
				-0.25,
				0.0,
				0.0
			]
		},
		{
			"children": [
				0
			],
			"scale": [
				0.5,
				0.5,
				0.5
			]
		}
	],
	"samplers": [
		{
			"magFilter": 9728,
			"minFilter": 9728,
			"wrapS": 33071,
			"wrapT": 33071
		}
	],
	"scene": 0,
	"scenes": [
		{
			"name": "blockbench_export",
			"nodes": [
				1
			]
		}
	],
	"textures": [
		{
			"name": "texture",
			"sampler": 0,
			"source": 0
		}
	]
}