{"accessors":[{"bufferView":0,"byteOffset":0,"componentType":5126,"count":1130,"max":[0.2511763572692871,0.24714362621307373,0.4981710910797119],"min":[-0.25090354681015015,-0.2524561882019043,0.0],"type":"VEC3"},{"bufferView":1,"byteOffset":0,"componentType":5126,"count":1130,"max":[1.0,1.0,1.0],"min":[-1.0,-1.0,-1.0],"type":"VEC3"},{"bufferView":2,"byteOffset":0,"componentType":5126,"count":1130,"max":[0.7211900949478149,0.8398884534835815],"min":[0.15424683690071106,0.6513458490371704],"type":"VEC2"},{"bufferView":3,"byteOffset":0,"componentType":5125,"count":1812,"type":"SCALAR"},{"bufferView":4,"byteOffset":0,"componentType":5126,"count":24,"max":[1.0,1.0,2.024247169494629],"min":[-1.0,-1.0,0.0],"type":"VEC3"},{"bufferView":5,"byteOffset":0,"componentType":5126,"count":24,"max":[1.0,1.0,1.0],"min":[-1.0,-1.0,-1.0],"type":"VEC3"},{"bufferView":6,"byteOffset":0,"componentType":5126,"count":24,"max":[0.875,1.0],"min":[0.125,0.0],"type":"VEC2"},{"bufferView":7,"byteOffset":0,"componentType":5125,"count":36,"type":"SCALAR"}],"asset":{"extras":{"author":"assetfactory (https://sketchfab.com/assetfactory)","created":"Tue Nov 19 15:01:28 2024","license":"SKETCHFAB Standard (https://sketchfab.com/licenses)","source":"https://sketchfab.com/3d-models/low-poly-wood-box-f15cd15d6955411cb5bd3ce68ab02ef3","title":"Low poly wood box"},"generator":"Gestaltor 2023.1.0 Titan Community (dev-59216b3*)","version":"2.0"},"bufferViews":[{"buffer":0,"byteLength":13560,"byteOffset":0,"byteStride":12,"target":34962},{"buffer":0,"byteLength":13560,"byteOffset":13560,"byteStride":12,"target":34962},{"buffer":0,"byteLength":9040,"byteOffset":27120,"byteStride":8,"target":34962},{"buffer":0,"byteLength":7248,"byteOffset":36160,"target":34963},{"buffer":0,"byteLength":288,"byteOffset":43408,"byteStride":12,"target":34962},{"buffer":0,"byteLength":288,"byteOffset":43696,"byteStride":12,"target":34962},{"buffer":0,"byteLength":192,"byteOffset":43984,"byteStride":8,"target":34962},{"buffer":0,"byteLength":144,"byteOffset":44176,"target":34963}],"buffers":[{"byteLength":44320,"uri":"data:application/octet-stream;base64,"}],"images":[{"mimeType":"image/png","uri":"data:image/png;base64,"}],"materials":[{"doubleSided":true,"name":"Medieval","pbrMetallicRoughness":{"baseColorTexture":{"index":0},"metallicFactor":0.0}},{"alphaMode":"BLEND","doubleSided":true,"name":"COLLIDER","pbrMetallicRoughness":{"baseColorFactor":[0.0,0.00447227,0.8,0.0],"metallicFactor":0.0,"roughnessFactor":0.9863692499250046}}],"meshes":[{"name":"Item21_Medieval_0","primitives":[{"attributes":{"NORMAL":1,"POSITION":0,"TEXCOORD_0":2},"indices":3,"material":0,"mode":4}]},{"name":"Item21_Collider_COLLIDER_0","primitives":[{"attributes":{"NORMAL":5,"POSITION":4,"TEXCOORD_0":6},"indices":7,"material":1,"mode":4}]}],"nodes":[{"children":[1],"matrix":[1.0,0.0,0.0,0.0,0.0,2.220446049250313e-16,-1.0,0.0,0.0,1.0,2.220446049250313e-16,0.0,0.0,0.0,0.0,1.0],"name":"Sketchfab_model"},{"children":[2],"matrix":[0.009999999776482582,0.0,0.0,0.0,0.0,2.2204459996194763e-18,0.009999999776482582,0.0,0.0,-0.009999999776482582,2.2204459996194763e-18,0.0,0.0,0.0,0.0,1.0],"name":"Item21.fbx"},{"children":[3],"name":"RootNode"},{"children":[4],"matrix":[-99.99999999999241,1.2246460584917798e-14,3.8941437775530106e-05,0.0,3.894143777552999e-05,7.549789982075338e-06,99.99999999999211,0.0,-2.9277503001203735e-12,99.99999999999967,-7.549789970973106e-06,0.0,0.0,0.0,0.0,1.0],"name":"Item21"},{"mesh":0,"name":"Item21_Medieval_0","scale":[0.5,0.5,0.5]},{"children":[6],"matrix":[-24.071325302122187,2.947885365391963e-15,9.373720164272063e-06,0.0,9.37372016427204e-06,1.8173345062125258e-06,24.07132530212213,0.0,-7.047482994130502e-13,24.071325302123945,-1.8173345035400712e-06,0.0,0.0,0.0,0.0,1.0],"name":"Item21_Collider"},{"mesh":1,"name":"Item21_Collider_COLLIDER_0"}],"samplers":[{"magFilter":9729,"minFilter":9987,"wrapS":10497,"wrapT":10497}],"scene":0,"scenes":[{"name":"Sketchfab_Scene","nodes":[0]}],"textures":[{"sampler":0,"source":0}]}