{
	"accessors": [
		{
			"bufferView": 3,
			"byteOffset": 0,
			"componentType": 5126,
			"count": 3840,
			"max": [
				0.05000000074505806,
				0.10081839561462402,
				0.04999999701976776
			],
			"min": [
				-0.04999999701976776,
				0.0008183956379070878,
				-0.04999999701976776
			],
			"type": "VEC3"
		},
		{
			"bufferView": 2,
			"byteOffset": 0,
			"componentType": 5126,
			"count": 3840,
			"max": [
				0.9959691166877747,
				0.9972795844078064,
				0.9961655735969543
			],
			"min": [
				-0.9959691166877747,
				-0.9972795844078064,
				-0.9961655735969543
			],
			"type": "VEC3"
		},
		{
			"bufferView": 0,
			"componentType": 5126,
			"count": 3840,
			"type": "VEC2"
		},
		{
			"bufferView": 1,
			"componentType": 5123,
			"count": 3840,
			"type": "SCALAR"
		}
	],
	"asset": {
		"generator": "Khronos glTF Blender I/O v4.2.57",
		"version": "2.0"
	},
	"bufferViews": [
		{
			"buffer": 0,
			"byteLength": 30720,
			"byteOffset": 0,
			"target": 34962
		},
		{
			"buffer": 0,
			"byteLength": 7680,
			"byteOffset": 30720,
			"target": 34963
		},
		{
			"buffer": 0,
			"byteLength": 46080,
			"byteOffset": 38400
		},
		{
			"buffer": 0,
			"byteLength": 46080,
			"byteOffset": 84480
		}
	],
	"buffers": [
		{
			"byteLength": 130560,
			"uri": "data:application/octet-stream;base64,"
		}
	],
	"images": [
		{
			"mimeType": "image/png",
			"name": "Sphere",
			"uri": "data:image/png;base64,"
		}
	],
	"materials": [
		{
			"doubleSided": true,
			"name": "Material.001",
			"pbrMetallicRoughness": {
				"baseColorTexture": {
					"index": 0
				},
				"metallicFactor": 0,
				"roughnessFactor": 0.5
			}
		}
	],
	"meshes": [
		{
			"name": "Icosphere",
			"primitives": [
				{
					"attributes": {
						"NORMAL": 1,
						"POSITION": 0,
						"TEXCOORD_0": 2
					},
					"indices": 3,
					"material": 0
				}
			]
		}
	],
	"nodes": [
		{
			"mesh": 0,
			"name": "Icosphere"
		}
	],
	"samplers": [
		{
			"magFilter": 9729,
			"minFilter": 9987
		}
	],
	"scene": 0,
	"scenes": [
		{
			"name": "Scene",
			"nodes": [
				0
			]
		}
	],
	"textures": [
		{
			"sampler": 0,
			"source": 0
		}
	]
}