{
	"accessors": [
		{
			"bufferView": 2,
			"componentType": 5126,
			"count": 1974,
			"max": [
				0.4000000059604645,
				2.0,
				2.799999952316284
			],
			"min": [
				-0.5,
				-2.0,
				1.2999999523162842
			],
			"type": "VEC3"
		},
		{
			"bufferView": 2,
			"byteOffset": 23688,
			"componentType": 5126,
			"count": 1974,
			"max": [
				1.0,
				1.0,
				1.0
			],
			"min": [
				-1.0,
				-1.0,
				-1.0
			],
			"type": "VEC3"
		},
		{
			"bufferView": 1,
			"componentType": 5126,
			"count": 1974,
			"max": [
				0.9863280057907104,
				0.5
			],
			"min": [
				0.42382800579071045,
				0.5
			],
			"type": "VEC2"
		},
		{
			"bufferView": 0,
			"componentType": 5125,
			"count": 3528,
			"type": "SCALAR"
		}
	],
	"asset": {
		"extras": {
			"author": "flexben1 (https://sketchfab.com/flexben1)",
			"license": "CC-BY-4.0 (http://creativecommons.org/licenses/by/4.0/)",
			"source": "https://sketchfab.com/3d-models/voxel-blaster-afdbe85fb74d4566abde5407e0e0a6f2",
			"title": "Voxel Blaster"
		},
		"generator": "Sketchfab-15.30.0",
		"version": "2.0"
	},
	"bufferViews": [
		{
			"buffer": 0,
			"byteLength": 14112,
			"name": "floatBufferViews",
			"target": 34963
		},
		{
			"buffer": 0,
			"byteLength": 15792,
			"byteOffset": 14112,
			"byteStride": 8,
			"name": "floatBufferViews",
			"target": 34962
		},
		{
			"buffer": 0,
			"byteLength": 47376,
			"byteOffset": 29904,
			"byteStride": 12,
			"name": "floatBufferViews",
			"target": 34962
		}
	],
	"buffers": [
		{
			"byteLength": 77280,
			"uri": "data:application/octet-stream;base64,"
		}
	],
	"images": [
		{
			"uri": "data:image/png;base64,"
		}
	],
	"materials": [
		{
			"doubleSided": true,
			"name": "palette",
			"pbrMetallicRoughness": {
				"baseColorTexture": {
					"index": 0
				},
				"metallicFactor": 0.0
			}
		}
	],
	"meshes": [
		{
			"name": "Object_0",
			"primitives": [
				{
					"attributes": {
						"NORMAL": 1,
						"POSITION": 0,
						"TEXCOORD_0": 2
					},
					"indices": 3,
					"material": 0,
					"mode": 4
				}
			]
		}
	],
	"nodes": [
		{
			"children": [
				1
			],
			"matrix": [
				1.0,
				0.0,
				0.0,
				0.0,
				0.0,
				2.220446049250313e-16,
				-1.0,
				0.0,
				0.0,
				1.0,
				2.220446049250313e-16,
				0.0,
				0.0,
				0.0,
				0.0,
				1.0
			],
			"name": "Sketchfab_model"
		},
		{
			"children": [
				2
			],
			"name": "Blaster.obj.cleaner.materialmerger.gles"
		},
		{
			"mesh": 0,
			"name": "Object_2",
			"rotation": [
				1.776357365773582e-15,
				5.9604641121265477e-08,
				0.9999998790893049,
				0.0004917533654476045
			],
			"translation": [
				0.0,
				0.8883087154625773,
				-1.3060017161553428
			]
		}
	],
	"samplers": [
		{
			"magFilter": 9729,
			"minFilter": 9987,
			"wrapS": 10497,
			"wrapT": 10497
		}
	],
	"scene": 0,
	"scenes": [
		{
			"name": "Sketchfab_Scene",
			"nodes": [
				0
			]
		}
	],
	"textures": [
		{
			"sampler": 0,
			"source": 0
		}
	]
}