{
	"accessors": [
		{
			"bufferView": 3,
			"byteOffset": 0,
			"componentType": 5126,
			"count": 24,
			"max": [
				0.5,
				1.0,
				0.5
			],
			"min": [
				-0.5,
				0.0,
				-0.5
			],
			"type": "VEC3"
		},
		{
			"bufferView": 2,
			"byteOffset": 0,
			"componentType": 5126,
			"count": 24,
			"max": [
				1.0,
				1.0,
				1.0
			],
			"min": [
				-1.0,
				-1.0,
				-1.0
			],
			"type": "VEC3"
		},
		{
			"bufferView": 0,
			"componentType": 5126,
			"count": 24,
			"type": "VEC2"
		},
		{
			"bufferView": 1,
			"componentType": 5123,
			"count": 36,
			"type": "SCALAR"
		}
	],
	"asset": {
		"copyright": "2022 UX3D GmbH",
		"extras": {
			"created": "Mon Feb 21 15:13:32 2022"
		},
		"generator": "Gestaltor 2021.7.1 Corn Professional",
		"version": "2.0"
	},
	"bufferViews": [
		{
			"buffer": 0,
			"byteLength": 192,
			"byteOffset": 0
		},
		{
			"buffer": 0,
			"byteLength": 72,
			"byteOffset": 192
		},
		{
			"buffer": 0,
			"byteLength": 288,
			"byteOffset": 264
		},
		{
			"buffer": 0,
			"byteLength": 288,
			"byteOffset": 552
		}
	],
	"buffers": [
		{
			"byteLength": 840,
			"uri": "data:application/octet-stream;base64,"
		}
	],
	"images": [
		{
			"name": "Lilith",
			"uri": "data:image/png;base64,"
		}
	],
	"materials": [
		{
			"pbrMetallicRoughness": {
				"baseColorTexture": {
					"index": 0
				}
			}
		}
	],
	"meshes": [
		{
			"primitives": [
				{
					"attributes": {
						"NORMAL": 1,
						"POSITION": 0,
						"TEXCOORD_0": 2
					},
					"indices": 3,
					"material": 0
				}
			]
		}
	],
	"nodes": [
		{
			"mesh": 0
		}
	],
	"scene": 0,
	"scenes": [
		{
			"name": "Scene",
			"nodes": [
				0
			]
		}
	],
	"textures": [
		{
			"name": "Lilith",
			"source": 0
		}
	]
}